<svg xmlns="http://www.w3.org/2000/svg" viewBox="0 0 64 64" role="img" aria-label="蛐蛐模拟器">
  <rect width="64" height="64" rx="14" fill="#ffffff"/>
  <path fill="#0a0a0a" d="M22.5 29.3c1.2-5.2 5.8-9.1 11.3-9.1h8.1c4.4 0 8 3.6 8 8 0 3.5-2.3 6.6-5.6 7.7l-7.1 2.4c-6.6 2.2-13.8-1.7-15.3-8.5l.6-.5Z"/>
  <path fill="#0a0a0a" d="M13.9 30.1c0-4.1 3.3-7.4 7.4-7.4 3.1 0 5.7 1.9 6.8 4.6l.5 1.3-7 5.3c-3.2 2.4-7.7.1-7.7-3.8Z"/>
  <circle cx="20.7" cy="28.7" r="1.4" fill="#ffffff"/>
  <path fill="none" stroke="#0a0a0a" stroke-linecap="round" stroke-linejoin="round" stroke-width="4" d="M18.6 23.8 11.2 15M25.2 23.2l-3.4-10.5M39.4 38l7.8 11.7M30.4 38.9l-.4 12.4M24.6 36.3l-7.8 9.6M43.5 24.3l8.6-7.6M47.9 28.8h8.9M22.8 34.1l-12.1 1.3M38.9 38.8l-4.2 10.1"/>
  <path fill="none" stroke="#0a0a0a" stroke-linecap="round" stroke-linejoin="round" stroke-width="3" d="M34.2 20.4 42.8 8.9M30.1 21.6 31.6 9.8"/>
  <path fill="#0a0a0a" d="M33.1 24.4c.9-.8 2.2-.7 2.9.3 2.2 2.9 5.7 4.6 9.3 4.5 1.2 0 2.1.9 2.1 2.1 0 1-.8 1.9-1.8 2-5.2.5-10.3-2-13.2-6.3-.6-.8-.3-1.9.7-2.6Z"/>
</svg>
