<svg xmlns="http://www.w3.org/2000/svg" viewBox="0 0 120 120">
  <rect width="120" height="120" rx="22" fill="#78d7ff"/>
  <path d="M42 42C32 24 33 10 42 8c8-2 15 13 14 33ZM78 42c10-18 9-32 0-34-8-2-15 13-14 33Z" fill="#fff4c9" stroke="#2b2f3a" stroke-width="2.5"/>
  <path d="M47 37c-5-12-4-21-1-22 3-1 8 9 7 23ZM73 37c5-12 4-21 1-22-3-1-8 9-7 23Z" fill="#ffc3d1"/>
  <path d="M24 68c0-24 15-39 36-39s36 15 36 39c0 25-14 39-36 39S24 93 24 68Z" fill="#fff4c9" stroke="#2b2f3a" stroke-width="2.5"/>
  <circle cx="47" cy="60" r="7" fill="#fff"/>
  <circle cx="73" cy="60" r="7" fill="#fff"/>
  <circle cx="49" cy="61" r="3.2" fill="#2b2f3a"/>
  <circle cx="71" cy="61" r="3.2" fill="#2b2f3a"/>
  <path d="M58 70h4l-2 4Z" fill="#e98aa2"/>
  <path d="M54 80c3 3 9 3 12 0" fill="none" stroke="#2b2f3a" stroke-width="2.2" stroke-linecap="round"/>
  <circle cx="38" cy="72" r="4" fill="#ff9fb3" opacity=".75"/>
  <circle cx="82" cy="72" r="4" fill="#ff9fb3" opacity=".75"/>
  <path d="M36 92c9 8 39 8 48 0v16H36Z" fill="#8bd4ff" stroke="#2b2f3a" stroke-width="2.5" stroke-linejoin="round"/>
</svg>
