<svg xmlns="http://www.w3.org/2000/svg" viewBox="0 0 120 120">
  <rect width="120" height="120" rx="22" fill="#78d7ff"/>
  <path d="M42 35c-10-9-15-17-12-22M78 35c10-9 15-17 12-22M37 25l-10-3M83 25l10-3" fill="none" stroke="#2b2f3a" stroke-width="3" stroke-linecap="round"/>
  <path d="M23 67c0-25 16-42 37-42s37 17 37 42c0 25-14 40-37 40S23 92 23 67Z" fill="#e8b36f" stroke="#2b2f3a" stroke-width="2.5"/>
  <path d="M51 28c4 10 14 10 18 0" fill="#fff2bd"/>
  <circle cx="47" cy="59" r="7" fill="#fff"/>
  <circle cx="73" cy="59" r="7" fill="#fff"/>
  <circle cx="49" cy="60" r="3.2" fill="#2b2f3a"/>
  <circle cx="71" cy="60" r="3.2" fill="#2b2f3a"/>
  <path d="M56 70h8l-4 5Z" fill="#2b2f3a"/>
  <path d="M53 81c4 3 10 3 14 0" fill="none" stroke="#2b2f3a" stroke-width="2.2" stroke-linecap="round"/>
  <circle cx="38" cy="72" r="4" fill="#ff9fb3" opacity=".75"/>
  <circle cx="82" cy="72" r="4" fill="#ff9fb3" opacity=".75"/>
  <path d="M36 92c8 8 40 8 48 0v16H36Z" fill="#ff7b8f" stroke="#2b2f3a" stroke-width="2.5" stroke-linejoin="round"/>
</svg>
