<svg xmlns="http://www.w3.org/2000/svg" viewBox="0 0 120 120">
  <rect width="120" height="120" rx="22" fill="#78d7ff"/>
  <circle cx="38" cy="39" r="14" fill="#2b2f3a"/>
  <circle cx="82" cy="39" r="14" fill="#2b2f3a"/>
  <path d="M22 67c0-25 16-42 38-42s38 17 38 42c0 26-16 41-38 41S22 93 22 67Z" fill="#fff4c9" stroke="#2b2f3a" stroke-width="2.5"/>
  <ellipse cx="47" cy="60" rx="11" ry="10" fill="#2b2f3a"/>
  <ellipse cx="73" cy="60" rx="11" ry="10" fill="#2b2f3a"/>
  <circle cx="49" cy="59" r="4" fill="#fff"/>
  <circle cx="71" cy="59" r="4" fill="#fff"/>
  <circle cx="50" cy="60" r="2" fill="#2b2f3a"/>
  <circle cx="70" cy="60" r="2" fill="#2b2f3a"/>
  <path d="M56 72h8l-4 4Z" fill="#2b2f3a"/>
  <path d="M53 82c4 3 10 3 14 0" fill="none" stroke="#2b2f3a" stroke-width="2.2" stroke-linecap="round"/>
  <circle cx="39" cy="76" r="4" fill="#ff9fb3" opacity=".75"/>
  <circle cx="81" cy="76" r="4" fill="#ff9fb3" opacity=".75"/>
  <path d="M36 92c8 8 40 8 48 0v16H36Z" fill="#ff7b8f" stroke="#2b2f3a" stroke-width="2.5" stroke-linejoin="round"/>
</svg>
